<?xml version="1.0"?>
<svg xmlns="http://www.w3.org/2000/svg" xmlns:xlink="http://www.w3.org/1999/xlink" xmlns:svgjs="http://svgjs.com/svgjs" version="1.1" width="512" height="512" x="0" y="0" viewBox="0 0 468 468.43967" style="enable-background:new 0 0 512 512" xml:space="preserve" class=""><g><path xmlns="http://www.w3.org/2000/svg" d="m316.1875 284.640625 26.078125-26.078125 47.410156 47.414062-26.074219 26.078126zm0 0" fill="#3fdaff" data-original="#6fe3ff" style="" class=""/><path xmlns="http://www.w3.org/2000/svg" d="m363.601562 332.054688-106.691406 106.6875-47.410156-47.417969 4.050781-4.039063 82.9375-82.941406 19.703125-19.699219zm0 0" fill="#2a9d8f" data-original="#f8ec7d" style="" class=""/><path xmlns="http://www.w3.org/2000/svg" d="m296.488281 304.34375-82.9375 82.941406-.121093-.121094-164.859376.820313c-22.484374.109375-40.796874-18.027344-40.910156-40.511719l-1.441406-299.886718c-.105469-22.484376 18.027344-40.800782 40.511719-40.910157l142.871093-.683593 1.929688.183593.300781 62.160157c.105469 22.480468 18.417969 40.617187 40.898438 40.507812l62.351562-.300781.007813 1.5.800781 193.699219zm0 0" fill="#3fdaff" data-original="#6fe3ff" style="" class=""/><path xmlns="http://www.w3.org/2000/svg" d="m295.082031 108.324219v.21875l-62.351562.300781c-22.480469.109375-40.792969-18.027344-40.898438-40.507812l-.300781-62.160157.207031.019531zm0 0" fill="#bcf1f7" data-original="#bcf1f7" style="" class=""/><path xmlns="http://www.w3.org/2000/svg" d="m209.5 391.324219 47.410156 47.417969-71.121094 23.703124zm0 0" fill="#3fdaff" data-original="#6fe3ff" style="" class=""/><g xmlns="http://www.w3.org/2000/svg" fill="#63316d"><path d="m15.503906 380.464844c8.726563 8.6875 20.546875 13.550781 32.863282 13.519531h.234374l153.941407-.769531-22.445313 67.328125c-.71875 2.15625-.15625 4.53125 1.449219 6.140625 1.609375 1.605468 3.984375 2.167968 6.140625 1.449218l71.121094-23.699218c.078125-.027344.148437-.066406.222656-.09375.078125-.027344.175781-.066406.261719-.105469.3125-.132813.613281-.292969.898437-.472656.023438-.015625.042969-.035157.066406-.050781.28125-.191407.542969-.40625.789063-.644532.03125-.03125.070313-.050781.097656-.085937l132.777344-132.765625c2.34375-2.34375 2.34375-6.144532 0-8.484375l-47.417969-47.410157c-2.34375-2.34375-6.144531-2.34375-8.488281 0l-26.066406 26.070313-10.113281 10.113281-.746094-180.5-.007813-1.679687c0-1.601563-.644531-3.140625-1.785156-4.265625l-103.339844-102.132813c-.984375-.96875-2.273437-1.570312-3.648437-1.699219l-2.152344-.1992182c-.191406-.0195313-.378906-.02343755-.585938-.0273438l-142.871093.679688c-25.777344.164062-46.566407 21.15625-46.480469 46.933593l1.441406 299.890625c.027344 12.394532 5.011719 24.261719 13.84375 32.960938zm300.683594-87.339844 38.925781 38.929688-98.203125 98.199218-38.925781-38.929687zm-120.910156 159.832031 16.84375-50.523437 33.683594 33.6875zm146.984375-185.90625 38.933593 38.921875-17.59375 17.59375-38.929687-38.925781zm-61.496094-164.4375-48.066406.230469h-.171875c-19.089844-.023438-34.585938-15.445312-34.699219-34.539062l-.230469-47.882813zm-234.007813-89.9375 138.800782-.664062.273437 56.351562c.148438 25.691407 21.003907 46.449219 46.699219 46.480469h.230469l56.351562-.269531.777344 187.882812-78.714844 78.71875-162.628906.808594h-.175781c-19.101563-.003906-34.609375-15.4375-34.707032-34.539063l-1.445312-299.886718c-.066406-19.160156 15.382812-34.761719 34.539062-34.882813zm0 0" fill="#264653" data-original="#63316d" style="" class=""/><path d="m165.539062 221.515625h-20.347656c-3.316406 0-6 2.683594-6 6 0 3.3125 2.683594 6 6 6h20.347656c3.316407 0 6-2.6875 6-6 0-3.316406-2.683593-6-6-6zm0 0" fill="#264653" data-original="#63316d" style="" class=""/><path d="m66.75 182.632812h168.941406c3.3125 0 6-2.683593 6-6 0-3.3125-2.6875-6-6-6h-168.941406c-3.3125 0-6 2.6875-6 6 0 3.316407 2.6875 6 6 6zm0 0" fill="#264653" data-original="#63316d" style="" class=""/><path d="m66.75 233.515625h52.660156c3.3125 0 6-2.6875 6-6 0-3.316406-2.6875-6-6-6h-52.660156c-3.3125 0-6 2.683594-6 6 0 3.3125 2.6875 6 6 6zm0 0" fill="#264653" data-original="#63316d" style="" class=""/></g></g></svg>
